<svg width="16" height="16" viewBox="0 0 16 16" fill="none" xmlns="http://www.w3.org/2000/svg">
<path d="M4.86067 13.8826L1.33334 14.6666L2.11734 11.1393C1.60102 10.1735 1.33169 9.09502 1.33334 7.99992C1.33334 4.31792 4.318 1.33325 8 1.33325C11.682 1.33325 14.6667 4.31792 14.6667 7.99992C14.6667 11.6819 11.682 14.6666 8 14.6666C6.90491 14.6682 5.82641 14.3989 4.86067 13.8826ZM5.054 12.4739L5.48934 12.7073C6.2617 13.12 7.12426 13.3351 8 13.3333C9.05484 13.3333 10.086 13.0205 10.963 12.4344C11.8401 11.8484 12.5237 11.0154 12.9274 10.0409C13.331 9.06636 13.4366 7.994 13.2309 6.95944C13.0251 5.92487 12.5171 4.97456 11.7712 4.22868C11.0254 3.4828 10.075 2.97485 9.04048 2.76906C8.00592 2.56328 6.93356 2.66889 5.95902 3.07256C4.98449 3.47623 4.15153 4.15982 3.5655 5.03688C2.97946 5.91394 2.66667 6.94509 2.66667 7.99992C2.66667 8.88925 2.88334 9.74525 3.29334 10.5106L3.526 10.9459L3.08934 12.9106L5.054 12.4739Z" fill="#878787"/>
</svg>
