<svg width="16" height="16" viewBox="0 0 16 16" fill="none" xmlns="http://www.w3.org/2000/svg">
<path d="M2.66666 14.6667C2.66666 13.2523 3.22856 11.8957 4.22875 10.8955C5.22895 9.89532 6.5855 9.33342 7.99999 9.33342C9.41448 9.33342 10.771 9.89532 11.7712 10.8955C12.7714 11.8957 13.3333 13.2523 13.3333 14.6667H12C12 13.6059 11.5786 12.5885 10.8284 11.8383C10.0783 11.0882 9.06086 10.6667 7.99999 10.6667C6.93912 10.6667 5.92171 11.0882 5.17156 11.8383C4.42142 12.5885 3.99999 13.6059 3.99999 14.6667H2.66666ZM7.99999 8.66675C5.78999 8.66675 3.99999 6.87675 3.99999 4.66675C3.99999 2.45675 5.78999 0.666748 7.99999 0.666748C10.21 0.666748 12 2.45675 12 4.66675C12 6.87675 10.21 8.66675 7.99999 8.66675ZM7.99999 7.33342C9.47332 7.33342 10.6667 6.14008 10.6667 4.66675C10.6667 3.19341 9.47332 2.00008 7.99999 2.00008C6.52666 2.00008 5.33332 3.19341 5.33332 4.66675C5.33332 6.14008 6.52666 7.33342 7.99999 7.33342Z" fill="#878787"/>
</svg>
